<svg xmlns="http://www.w3.org/2000/svg" width="24" height="42" viewBox="0 0 24 42">
  <path id="パス_6" data-name="パス 6" d="M130,42c0-1.6.5-3,1-3,.6,0,1-3.3,1-7.8,0-6.6-.3-8-2-9.2s-2-2.6-2-8.2c0-6.1.2-6.8,2-6.8a1.8,1.8,0,0,0,2-2c0-1.8.7-2,7-2,4,0,7,.4,7,1s.9,1,2,1c1.9,0,2,.7,2,17,0,10.7.4,17,1,17s1,1.4,1,3v3H130Zm20,0c0-.6-3.7-1-9-1s-9,.4-9,1,3.7,1,9,1S150,42.6,150,42Zm-2-4.9a3.016,3.016,0,0,0-1.2-2.5c-1-.5-1-.7,0-1.2,3-1.4.7-2.4-5.8-2.4s-8.8,1-5.7,2.4c1,.5,1,.7,0,1.2a2.834,2.834,0,0,0-1.3,2.5c0,1.7.8,1.9,7,1.9S148,38.8,148,37.1ZM148,26c0-.6-3-1-7-1s-7,.4-7,1,3,1,7,1S148,26.6,148,26Zm0-8V15H134v6h14Zm-16-4c0-2.7-.4-5-1-5-.5,0-1,2.3-1,5,0,2.8.5,5,1,5C131.6,19,132,16.8,132,14Zm4-5c0-2.2-.4-4-1-4-.5,0-1,1.8-1,4s.5,4,1,4C135.6,13,136,11.2,136,9Zm4,0c0-2.2-.4-4-1-4-.5,0-1,1.8-1,4s.5,4,1,4C139.6,13,140,11.2,140,9Zm4,0c0-2.2-.4-4-1-4-.5,0-1,1.8-1,4s.5,4,1,4C143.6,13,144,11.2,144,9Zm4,1c0-1.6-.4-3-1-3-.5,0-1,1.4-1,3,0,1.7.5,3,1,3C147.6,13,148,11.7,148,10Z" transform="translate(-128 -3)"/>
</svg>
