<svg xmlns="http://www.w3.org/2000/svg" width="40" height="42" viewBox="0 0 40 42">
  <path id="パス_5" data-name="パス 5" d="M64,42.5a8.17,8.17,0,0,1,2-4.7c2.1-2.3,2.7-6.8,1-6.8-.6,0-1-3-1-7,0-6.3-.2-7-2-7s-2-.7-2-7V3h7c6.3,0,7,.2,7,2,0,1.1.5,2,1,2,.6,0,1,.9,1,2,0,1.7.7,2,4,2s4-.3,4-2c0-1.1.5-2,1-2,.6,0,1-.9,1-2,0-1.8.7-2,7-2h7v7c0,6.3-.2,7-2,7s-2,.7-2,7c0,4-.4,7-1,7-1.7,0-1.1,4.5,1,6.8a8.17,8.17,0,0,1,2,4.7V45H64ZM98,42c0-.6-6-1-16-1s-16,.4-16,1,6,1,16,1S98,42.6,98,42Zm-2.5-4c-.4-.6-6-1-13.5-1s-13.1.4-13.5,1,4.3,1,13.5,1S95.9,38.6,95.5,38ZM94,32c0-1.6.5-3,1-3,.6,0,1-1.3,1-3V23H68v3c0,1.7.5,3,1,3,.6,0,1,1.4,1,3v3H94ZM92,19.1a2.467,2.467,0,0,1,2.3-2.4c2.1-.3,2.1-.4.3-1.2q-1.95-.9-2.4.3c-.2.7-1.7,1.2-3.3,1.2-2.2,0-2.9-.5-2.9-2,0-1.7-.7-2-4-2s-4,.3-4,2c0,1.5-.7,2-2.9,2-1.6,0-3.1-.5-3.3-1.2q-.45-1.2-2.4-.3c-1.8.8-1.8.9.4,1.2A2.455,2.455,0,0,1,72,19.1c0,1.7.8,1.9,10,1.9s10-.2,10-1.9ZM67.5,14c.3-.5,1.9-1,3.6-1,2.7,0,2.9-.2,2.9-4V5H64v5c0,3.7.4,5,1.4,5A2.517,2.517,0,0,0,67.5,14ZM100,10V5H90V9c0,3.8.2,4,2.9,4,1.7,0,3.3.5,3.6,1a2.517,2.517,0,0,0,2.1,1C99.6,15,100,13.7,100,10Z" transform="translate(-62 -3)"/>
</svg>
