<svg xmlns="http://www.w3.org/2000/svg" width="36" height="44" viewBox="0 0 36 44">
  <path id="パス_4" data-name="パス 4" d="M14,43.1c0-1.7.5-3.3,1-3.6,2.1-1.3.8-4.3-4-9-3.6-3.6-5-5.7-5-7.7,0-2.1.5-2.8,2-2.8a1.8,1.8,0,0,0,2-2c0-1.1-.4-2-1-2-2.3,0-.7-3.9,3.3-7.7C17.9,2.9,19.9,2,26,2c5.8,0,8.2,1,12.8,5.3,3.1,3,3.2,3.4,3.2,10.7,0,7.5,0,7.6-4,11.5-4.4,4.3-5.1,7.4-2,9.3A4.671,4.671,0,0,1,38,43v3H14Zm4.3-.3c.4-1,.8-.9,1.6.2,1,1.3,1.2,1.3,2.2,0,.8-1.1,1.2-1.2,1.6-.2a2.8,2.8,0,0,0,4.6,0c.4-1,.8-.9,1.6.2,1,1.3,1.2,1.3,2.1,0s1.1-1.3,1.9,0c1.2,1.8,2.6.6,1.7-1.5-.5-1.3-2.1-1.5-9.8-1.3-7.9.3-9.3.6-9.6,2.1-.4,1.9,1.4,2.4,2.1.5ZM32,36c0-1.8-.7-2-5.2-2-4.7.1-8.8,1.6-8.8,3.4,0,.3,3.2.6,7,.6C31.3,38,32,37.8,32,36ZM20.6,32.6A36.786,36.786,0,0,0,27.5,27c2.2-2.3,5-4.6,6.3-5.1a2.617,2.617,0,0,0,2-3.2c-.2-1.8-1-2.3-4-2.5-3.6-.3-3.8-.2-3.8,2.7V22H18c-7.2,0-10,.3-10,1.2S16.8,34,17.6,34C17.6,34,19,33.3,20.6,32.6Zm15.6-4.3c3.1-3,3.8-4.4,3.8-7.5s-.7-4.4-3.7-7.3c-3.8-3.4-3.9-3.4-13.2-3.5-7.4,0-9.8.4-11.3,1.7C8,15.1,9.5,16,19,16c5.3,0,9-.4,9-1,0-1.6,7-1.2,8.6.5,2.3,2.2,1.4,6.8-1.6,8.2a24.549,24.549,0,0,0-5.9,4.7L25.6,32H29c2.6,0,4.3-.9,7.2-3.7Zm1.7-19A15.682,15.682,0,0,0,19.4,5.8L15.5,7.5l9.1.3c8.6.3,9.2.4,12,3.3,1.6,1.6,3,2.5,3.2,1.9S39.2,10.7,37.9,9.3Z" transform="translate(-6 -2)"/>
</svg>
