<svg xmlns="http://www.w3.org/2000/svg" width="40" height="40" viewBox="0 0 40 40">
  <g id="グループ_2" data-name="グループ 2" transform="translate(-1318 -762)">
    <path id="パス_2" data-name="パス 2" d="M63.2,102.8c-.7-.7-1.2-4-1.2-7.8s.5-7.1,1.2-7.8,4-1.2,8-1.2H78V78c0-4.7-.4-8-1-8-.5,0-1-1.3-1-3V64H98v3c0,1.7-.4,3-1,3s-1,3.2-1,7.6c0,7.1.2,7.7,3,10.1,2.6,2.1,3,3.2,3,7.2,0,3.7-.5,5.2-2.3,6.9-2.2,2.1-3.3,2.2-18.8,2.2-11.5,0-16.9-.4-17.7-1.2ZM70,95c0-6.8-.1-7-2.4-7-1.4,0-2.8.5-3.1,1-.3.6.3,1,1.4,1,1.2,0,2.1.5,2.1,1,0,.6-.9,1-2,1s-2,.5-2,1c0,.6.9,1,2,1s2,.5,2,1c0,.6-.9,1-2,1s-2,.5-2,1c0,.6.9,1,2,1s2,.5,2,1c0,.6-.9,1-2.1,1-1.1,0-1.7.5-1.4,1,.3.6,1.7,1,3.1,1C69.9,102,70,101.8,70,95Zm8,0V88H72v14h6Zm4,3c0-2.2-.4-4-1-4-.5,0-1,1.8-1,4s.5,4,1,4C81.6,102,82,100.2,82,98Zm8,.2c0-2.6.7-4.5,2-5.7a6.632,6.632,0,0,0,2-4.2c0-2.2-.3-2.3-7-2.3H80v3c0,2.3.4,3,2,3,1.7,0,2,.7,2,5,0,4.9.1,5,3,5C89.8,102,90,101.8,90,98.2Zm7.2,1.1c3.3-3.2,3.7-7.2.8-9.8-1.9-1.8-2-1.7-2,.2a6.187,6.187,0,0,1-2,3.8c-2.2,2-2.8,8.5-.8,8.5C93.9,102,95.7,100.8,97.2,99.3ZM94,80.5c0-2.4-.2-2.5-7-2.5s-7,.1-7,2.5.2,2.5,7,2.5S94,82.9,94,80.5Zm0-8c0-2.4-.2-2.5-7-2.5s-7,.1-7,2.5.2,2.5,7,2.5S94,74.9,94,72.5ZM96,67c0-.6-3.7-1-9-1s-9,.4-9,1,3.7,1,9,1S96,67.6,96,67Z" transform="translate(1256 698)"/>
    <path id="パス_3" data-name="パス 3" d="M86,98c0-1.1.5-2,1-2,.6,0,1,.9,1,2s-.4,2-1,2C86.5,100,86,99.1,86,98Z" transform="translate(1256 698)"/>
  </g>
</svg>
