<svg xmlns="http://www.w3.org/2000/svg" width="44" height="40" viewBox="0 0 44 40">
  <path id="パス_1" data-name="パス 1" d="M18,96c0-4.7-.4-8-1-8-.5,0-1,2-1,4.5a19.575,19.575,0,0,1-1.2,7c-1,2.3-1.7,2.5-7,2.5H2V94c0-4.7.4-8,1-8s1-1.3,1-3c0-1.6.5-3,1-3,.6,0,1-3.3,1-8V64H42v8c0,4.7.4,8,1,8s1,1.4,1,3c0,1.7.5,3,1,3,.6,0,1,3.3,1,8v8H40.2c-5.3,0-6-.2-7-2.5a19.575,19.575,0,0,1-1.2-7c0-2.5-.4-4.5-1-4.5s-1,3.3-1,8v8H18Zm9.8-1.2-.2-7.3-.3,6.3c-.4,6.1-.4,6.2-3.3,6.2s-2.9-.1-3.3-6.2l-.3-6.3-.2,7.3L20,102h8Zm-15,2.7C14.3,94.3,14.4,86,13,86c-.5,0-1,1.3-1,2.9,0,1.7-.4,3.3-1,3.6-.5.3-1,1.7-1,3.1,0,2-.5,2.4-3,2.4-1.6,0-3,.5-3,1,0,.6,1.7,1,3.8,1C11,100,11.9,99.5,12.8,97.5ZM44,99c0-.5-1.3-1-3-1-2.5,0-3-.4-3-2.4,0-1.4-.4-2.8-1-3.1-.5-.3-1-1.9-1-3.6,0-1.6-.4-2.9-1-2.9-1.4,0-1.3,8.3.2,11.5.9,2,1.8,2.5,5,2.5C42.3,100,44,99.6,44,99ZM25,96c0-1.1-.4-2-1-2-.5,0-1,.9-1,2s.5,2,1,2C24.6,98,25,97.1,25,96ZM8,95c0-.5-.9-1-2-1s-2,.5-2,1c0,.6.9,1,2,1S8,95.6,8,95Zm36,0c0-.5-.9-1-2-1s-2,.5-2,1c0,.6.9,1,2,1S44,95.6,44,95ZM9.8,89.8c.3-1.4-.3-1.8-2.7-1.8C4.6,88,4,88.4,4,90.1c0,1.6.5,2,2.7,1.7,1.7-.2,2.9-1,3.1-2ZM25,89c0-1.6-.4-3-1-3-.5,0-1,1.4-1,3,0,1.7.5,3,1,3C24.6,92,25,90.7,25,89Zm19,1c0-1.6-.7-2-3-2-1.8,0-3,.5-3,1.3,0,2,1,2.7,3.7,2.7C43.3,92,44,91.4,44,90ZM10,84a1.8,1.8,0,0,0-2-2,2,2,0,0,0,0,4A1.8,1.8,0,0,0,10,84Zm10,0a1.8,1.8,0,0,0-2-2,2,2,0,0,0,0,4A1.8,1.8,0,0,0,20,84Zm12,0a1.8,1.8,0,0,0-2-2,2,2,0,0,0,0,4A1.8,1.8,0,0,0,32,84Zm10,0a1.8,1.8,0,0,0-2-2,2,2,0,0,0,0,4A1.8,1.8,0,0,0,42,84ZM26,83c0-.5-.9-1-2-1s-2,.5-2,1c0,.6.9,1,2,1S26,83.6,26,83ZM14,77c0-2.7-.3-3-3-3s-3,.3-3,3,.3,3,3,3S14,79.7,14,77Zm8,0c0-2.7-.3-3-3-3s-3,.3-3,3,.3,3,3,3S22,79.7,22,77Zm10,0c0-2.7-.3-3-3-3s-3,.3-3,3,.3,3,3,3S32,79.7,32,77Zm8,0c0-2.7-.3-3-3-3s-3,.3-3,3,.3,3,3,3S40,79.7,40,77Zm-.3-8V66H8.3v6H39.7Z" transform="translate(-2 -64)"/>
</svg>
